{
  "accessors": [
    {
      "bufferView": 2,
      "componentType": 5126,
      "count": 6696,
      "max": [
        10.04209041595459,
        13.845372200012207,
        29.402917861938477
      ],
      "min": [
        -9.54842472076416,
        -10.845532417297363,
        -2.763000965118408
      ],
      "type": "VEC3"
    },
    {
      "bufferView": 2,
      "byteOffset": 80352,
      "componentType": 5126,
      "count": 6696,
      "max": [
        0.9992430806159973,
        0.9999755620956421,
        0.999960720539093
      ],
      "min": [
        -0.9997449517250061,
        -0.9999711513519287,
        -0.9999265670776367
      ],
      "type": "VEC3"
    },
    {
      "bufferView": 1,
      "componentType": 5126,
      "count": 6696,
      "max": [
        0.9817000031471252,
        0.9854999780654907
      ],
      "min": [
        0.018300000578165054,
        0.021199999377131462
      ],
      "type": "VEC2"
    },
    {
      "bufferView": 0,
      "componentType": 5125,
      "count": 35892,
      "type": "SCALAR"
    }
  ],
  "asset": {
    "extras": {
      "author": "mono (https://sketchfab.com/michela.000)",
      "license": "CC-BY-4.0 (http://creativecommons.org/licenses/by/4.0/)",
      "source": "https://sketchfab.com/3d-models/head-woman-basemesh-f62bfd9c3ad047e08cd932fef6c40dc6",
      "title": "Head_Woman_basemesh"
    },
    "generator": "Sketchfab-12.68.0",
    "version": "2.0"
  },
  "bufferViews": [
    {
      "buffer": 0,
      "byteLength": 143568,
      "name": "floatBufferViews",
      "target": 34963
    },
    {
      "buffer": 0,
      "byteLength": 53568,
      "byteOffset": 143568,
      "byteStride": 8,
      "name": "floatBufferViews",
      "target": 34962
    },
    {
      "buffer": 0,
      "byteLength": 160704,
      "byteOffset": 197136,
      "byteStride": 12,
      "name": "floatBufferViews",
      "target": 34962
    }
  ],
  "buffers": [
    {
      "byteLength": 357840,
      "uri": "scene.bin"
    }
  ],
  "materials": [
    {
      "doubleSided": true,
      "name": "material_0",
      "pbrMetallicRoughness": {
        "metallicFactor": 0.0,
        "roughnessFactor": 0.6
      }
    }
  ],
  "meshes": [
    {
      "name": "Object_0",
      "primitives": [
        {
          "attributes": {
            "NORMAL": 1,
            "POSITION": 0,
            "TEXCOORD_0": 2
          },
          "indices": 3,
          "material": 0,
          "mode": 4
        }
      ]
    }
  ],
  "nodes": [
    {
      "children": [
        1
      ],
      "matrix": [
        1.0,
        0.0,
        0.0,
        0.0,
        0.0,
        2.220446049250313e-16,
        -1.0,
        0.0,
        0.0,
        1.0,
        2.220446049250313e-16,
        0.0,
        0.0,
        0.0,
        0.0,
        1.0
      ],
      "name": "Sketchfab_model"
    },
    {
      "children": [
        2
      ],
      "name": "HEAD WOMAN.obj.cleaner.materialmerger.gles"
    },
    {
      "mesh": 0,
      "name": "Object_2"
    }
  ],
  "scene": 0,
  "scenes": [
    {
      "name": "Sketchfab_Scene",
      "nodes": [
        0
      ]
    }
  ]
}
