{
  "accessors": [
    {
      "bufferView": 2,
      "componentType": 5126,
      "count": 65002,
      "max": [
        15.453293800354004,
        31.770526885986328,
        47.85737609863281
      ],
      "min": [
        -35.88992691040039,
        -17.80819320678711,
        -0.052463702857494354
      ],
      "type": "VEC3"
    },
    {
      "bufferView": 2,
      "byteOffset": 780024,
      "componentType": 5126,
      "count": 65002,
      "max": [
        0.9996601939201355,
        0.9999740123748779,
        0.9999788999557495
      ],
      "min": [
        -0.9999762773513794,
        -0.9999589323997498,
        -0.9999902248382568
      ],
      "type": "VEC3"
    },
    {
      "bufferView": 1,
      "componentType": 5126,
      "count": 65002,
      "max": [
        1.8808456659317017,
        1.9665839672088623
      ],
      "min": [
        -0.4275573492050171,
        -1.466066837310791
      ],
      "type": "VEC2"
    },
    {
      "bufferView": 0,
      "componentType": 5125,
      "count": 95418,
      "type": "SCALAR"
    },
    {
      "bufferView": 2,
      "byteOffset": 1560048,
      "componentType": 5126,
      "count": 54363,
      "max": [
        15.98806381225586,
        21.761302947998047,
        42.06779479980469
      ],
      "min": [
        -23.93177032470703,
        -15.669198989868164,
        0.144597128033638
      ],
      "type": "VEC3"
    },
    {
      "bufferView": 2,
      "byteOffset": 2212404,
      "componentType": 5126,
      "count": 54363,
      "max": [
        0.9999992847442627,
        0.9999998211860657,
        0.9999969005584717
      ],
      "min": [
        -0.9999980330467224,
        -0.9999129176139832,
        -0.9999926090240479
      ],
      "type": "VEC3"
    },
    {
      "bufferView": 1,
      "byteOffset": 520016,
      "componentType": 5126,
      "count": 54363,
      "max": [
        0.9864675402641296,
        0.9280818104743958
      ],
      "min": [
        0.009545333683490753,
        0.001780390739440918
      ],
      "type": "VEC2"
    },
    {
      "bufferView": 0,
      "byteOffset": 381672,
      "componentType": 5125,
      "count": 84339,
      "type": "SCALAR"
    }
  ],
  "asset": {
    "extras": {
      "author": "Federico.Villani (https://sketchfab.com/Federico.Villani)",
      "license": "CC-BY-4.0 (http://creativecommons.org/licenses/by/4.0/)",
      "source": "https://sketchfab.com/3d-models/cat-static-pose-27b4c1e4338d44278f46d409cd8c9b76",
      "title": "Cat - Static Pose"
    },
    "generator": "Sketchfab-12.65.0",
    "version": "2.0"
  },
  "bufferViews": [
    {
      "buffer": 0,
      "byteLength": 719028,
      "name": "floatBufferViews",
      "target": 34963
    },
    {
      "buffer": 0,
      "byteLength": 954920,
      "byteOffset": 719028,
      "byteStride": 8,
      "name": "floatBufferViews",
      "target": 34962
    },
    {
      "buffer": 0,
      "byteLength": 2864760,
      "byteOffset": 1673948,
      "byteStride": 12,
      "name": "floatBufferViews",
      "target": 34962
    }
  ],
  "buffers": [
    {
      "byteLength": 4538708,
      "uri": "scene.bin"
    }
  ],
  "images": [
    {
      "uri": "textures/Pupil1_baseColor.png"
    }
  ],
  "materials": [
    {
      "doubleSided": true,
      "name": "Pupil1",
      "pbrMetallicRoughness": {
        "baseColorTexture": {
          "index": 0
        },
        "metallicFactor": 0.0,
        "roughnessFactor": 0.8772563176895307
      }
    }
  ],
  "meshes": [
    {
      "name": "Object_0",
      "primitives": [
        {
          "attributes": {
            "NORMAL": 1,
            "POSITION": 0,
            "TEXCOORD_0": 2
          },
          "indices": 3,
          "material": 0,
          "mode": 4
        }
      ]
    },
    {
      "name": "Object_1",
      "primitives": [
        {
          "attributes": {
            "NORMAL": 5,
            "POSITION": 4,
            "TEXCOORD_0": 6
          },
          "indices": 7,
          "material": 0,
          "mode": 4
        }
      ]
    }
  ],
  "nodes": [
    {
      "children": [
        1
      ],
      "matrix": [
        1.0,
        0.0,
        0.0,
        0.0,
        0.0,
        2.220446049250313e-16,
        -1.0,
        0.0,
        0.0,
        1.0,
        2.220446049250313e-16,
        0.0,
        0.0,
        0.0,
        0.0,
        1.0
      ],
      "name": "Sketchfab_model"
    },
    {
      "children": [
        2,
        4
      ],
      "matrix": [
        1.0,
        0.0,
        0.0,
        0.0,
        0.0,
        0.0,
        1.0,
        0.0,
        0.0,
        -1.0,
        0.0,
        0.0,
        0.0,
        0.0,
        0.0,
        1.0
      ],
      "name": "Model_1"
    },
    {
      "children": [
        3
      ],
      "matrix": [
        1.0,
        0.0,
        0.0,
        0.0,
        0.0,
        6.123234262925839e-17,
        -1.0,
        0.0,
        0.0,
        1.0,
        6.123234262925839e-17,
        0.0,
        -0.0,
        -0.0,
        -0.0,
        1.0
      ],
      "name": "3DSMeshMatrix"
    },
    {
      "mesh": 0,
      "name": "Object_3"
    },
    {
      "children": [
        5
      ],
      "matrix": [
        1.0,
        0.0,
        0.0,
        0.0,
        0.0,
        6.123234262925839e-17,
        -1.0,
        0.0,
        0.0,
        1.0,
        6.123234262925839e-17,
        0.0,
        -0.0,
        -0.0,
        -0.0,
        1.0
      ],
      "name": "3DSMeshMatrix"
    },
    {
      "mesh": 1,
      "name": "Object_5"
    }
  ],
  "samplers": [
    {
      "magFilter": 9729,
      "minFilter": 9987,
      "wrapS": 10497,
      "wrapT": 10497
    }
  ],
  "scene": 0,
  "scenes": [
    {
      "name": "Sketchfab_Scene",
      "nodes": [
        0
      ]
    }
  ],
  "textures": [
    {
      "sampler": 0,
      "source": 0
    }
  ]
}
